<svg width="42" height="42" viewBox="0 0 42 42" fill="none" xmlns="http://www.w3.org/2000/svg">
<path d="M30.0591 15.1611C32.76 17.0986 36.0687 18.2386 39.6422 18.2386V11.3376C38.9659 11.3377 38.2913 11.2669 37.6297 11.1263V16.5584C34.0564 16.5584 30.7482 15.4184 28.0466 13.481V27.564C28.0466 34.6091 22.3557 40.3198 15.3361 40.3198C12.717 40.3198 10.2825 39.5252 8.26025 38.1623C10.5683 40.5307 13.7872 42 17.3482 42C24.3683 42 30.0594 36.2892 30.0594 29.2439V15.1611H30.0591ZM32.5418 8.19874C31.1615 6.6854 30.2552 4.72968 30.0591 2.56756V1.67993H28.152C28.632 4.42799 30.2694 6.77577 32.5418 8.19874ZM12.7002 32.7562C11.929 31.7414 11.5122 30.5 11.5141 29.2237C11.5141 26.0015 14.1171 23.389 17.3284 23.389C17.9269 23.3888 18.5218 23.4808 19.0921 23.6624V16.6071C18.4256 16.5154 17.7529 16.4765 17.0805 16.4908V21.9823C16.5097 21.8007 15.9145 21.7084 15.3159 21.709C12.1045 21.709 9.50173 24.3213 9.50173 27.5438C9.50173 29.8224 10.8028 31.7952 12.7002 32.7562Z" fill="#FF004F"/>
<path d="M28.0462 13.4808C30.7478 15.4182 34.056 16.5582 37.6293 16.5582V11.1261C35.6347 10.6997 33.869 9.65371 32.5414 8.19874C30.2689 6.77563 28.6316 4.42785 28.1516 1.67993H23.142V29.2436C23.1307 32.4569 20.5322 35.0588 17.3277 35.0588C15.4394 35.0588 13.7618 34.1555 12.6993 32.7562C10.8021 31.7952 9.50103 29.8223 9.50103 27.544C9.50103 24.3217 12.1038 21.7091 15.3152 21.7091C15.9305 21.7091 16.5235 21.8053 17.0798 21.9824V16.4909C10.1835 16.6339 4.63721 22.2889 4.63721 29.2437C4.63721 32.7155 6.01836 35.8628 8.25999 38.1625C10.2823 39.5252 12.7167 40.32 15.3359 40.32C22.3556 40.32 28.0463 34.609 28.0463 27.564V13.4808H28.0462Z" fill="#1E1E1E"/>
<path d="M37.6294 11.1262V9.65735C35.8308 9.66009 34.0675 9.15458 32.5415 8.19863C33.8924 9.68286 35.6712 10.7063 37.6294 11.1262ZM28.1517 1.67997C28.1059 1.41734 28.0708 1.15299 28.0464 0.887624V0H21.1295V27.5639C21.1185 30.7768 18.5201 33.3787 15.3154 33.3787C14.3745 33.3787 13.4862 33.1546 12.6995 32.7563C13.7619 34.1555 15.4395 35.0587 17.3279 35.0587C20.532 35.0587 23.131 32.4571 23.1422 29.2437V1.67997H28.1517ZM17.0802 16.491V14.9273C16.5023 14.848 15.9196 14.8082 15.3362 14.8085C8.31585 14.8084 2.625 20.5194 2.625 27.5639C2.625 31.9804 4.8616 35.8727 8.2603 38.1622C6.01867 35.8627 4.63751 32.7153 4.63751 29.2436C4.63751 22.2889 10.1837 16.6339 17.0802 16.491Z" fill="#00F2EA"/>
</svg>
